<svg width="23" height="19" viewBox="0 0 23 19" fill="none" xmlns="http://www.w3.org/2000/svg">
<path d="M19.5632 0.880155C19.5401 0.880582 19.5171 0.882249 19.4942 0.885078C19.3338 0.903785 19.1861 0.980351 19.0794 1.1002C18.9727 1.22005 18.9147 1.37459 18.9164 1.53418V3.48194H16.9527C16.934 3.48114 16.9152 3.48114 16.8965 3.48194C16.7289 3.49693 16.5736 3.57507 16.4628 3.7002C16.352 3.82533 16.2942 3.98777 16.3015 4.15387C16.3087 4.31997 16.3804 4.47693 16.5017 4.59218C16.6229 4.70742 16.7845 4.77215 16.9527 4.77284H18.9164V6.71045C18.9157 6.79611 18.9323 6.88102 18.965 6.96034C18.9977 7.03966 19.046 7.11183 19.1071 7.17263C19.1682 7.23342 19.2409 7.28172 19.3209 7.31465C19.4009 7.34758 19.4868 7.36448 19.5735 7.36448C19.6602 7.36448 19.746 7.34758 19.8261 7.31465C19.9061 7.28172 19.9788 7.23342 20.0399 7.17263C20.1009 7.11183 20.1492 7.03966 20.182 6.96034C20.2147 6.88102 20.2312 6.79611 20.2306 6.71045V4.77284H22.1917C22.281 4.77848 22.3705 4.76602 22.4547 4.73614C22.5389 4.70626 22.6161 4.65953 22.6813 4.59904C22.7466 4.53855 22.7986 4.46549 22.8342 4.38436C22.8697 4.30323 22.8881 4.21573 22.8881 4.12732C22.8881 4.0389 22.8697 3.95155 22.8342 3.87042C22.7986 3.78929 22.7466 3.71608 22.6813 3.65559C22.6161 3.5951 22.5389 3.54852 22.4547 3.51864C22.3705 3.48876 22.281 3.4763 22.1917 3.48194H20.2306V1.53418C20.2316 1.44755 20.215 1.36164 20.1818 1.28146C20.1486 1.20129 20.0994 1.12856 20.0371 1.06753C19.9749 1.00651 19.9009 0.958471 19.8195 0.926253C19.7381 0.894035 19.6509 0.878316 19.5633 0.880006L19.5632 0.880155ZM15.7306 0.894775C15.7067 0.894347 15.6827 0.895157 15.6589 0.897311H12.5268C12.247 0.897263 11.9633 0.897018 11.6857 0.897311C11.3497 0.896969 11.0481 0.897311 10.7115 0.897311C10.0668 0.897311 9.52499 0.887674 8.99077 1.00353C8.45654 1.11841 7.94999 1.38135 7.5027 1.8245C7.49916 1.82772 7.49567 1.8309 7.49221 1.83419C7.08941 2.23994 6.71634 2.697 6.37999 3.02663C6.04365 3.35611 5.76435 3.48373 5.71522 3.48373H3.21977C1.77287 3.48373 0.563232 4.63685 0.563232 6.07313V16.3926C0.563232 17.8288 1.76621 18.9958 3.21977 18.9996H11.7058H20.1894C21.645 18.9996 22.8485 17.8288 22.8485 16.3926V7.15935C22.8491 7.07369 22.8326 6.98864 22.7998 6.90932C22.7671 6.82999 22.7188 6.75797 22.6577 6.69718C22.5966 6.63638 22.524 6.58808 22.4439 6.55515C22.3639 6.52222 22.278 6.50532 22.1913 6.50532C22.1046 6.50532 22.0188 6.52222 21.9388 6.55515C21.8587 6.58808 21.7861 6.63638 21.725 6.69718C21.6639 6.75797 21.6156 6.82999 21.5829 6.90932C21.5501 6.98864 21.5336 7.07369 21.5342 7.15935V16.3926C21.5342 17.1299 20.9462 17.7112 20.1894 17.7112H11.7061H3.22005C2.46114 17.7092 1.87772 17.1299 1.87772 16.3926V6.07299C1.87772 5.33565 2.45448 4.77448 3.22005 4.77448H5.7155C6.41518 4.77448 6.89281 4.35078 7.30839 3.94352C7.72401 3.53631 8.09722 3.07707 8.43084 2.74094C8.73235 2.44225 8.93992 2.33175 9.26947 2.26086C9.59905 2.18998 10.0668 2.18523 10.7115 2.18523C11.0491 2.18523 11.3516 2.18488 11.6857 2.18523C11.9615 2.18493 12.2464 2.18518 12.5269 2.18523C12.6045 2.18527 15.6004 2.18523 15.659 2.18523C15.7464 2.19282 15.8345 2.18286 15.918 2.15613C16.0015 2.12941 16.0787 2.08643 16.1451 2.02963C16.2114 1.97282 16.2655 1.90342 16.3041 1.82554C16.3427 1.74766 16.3651 1.66285 16.3699 1.57625C16.3747 1.48965 16.3618 1.40303 16.3321 1.32144C16.3023 1.23986 16.2562 1.16502 16.1965 1.1014C16.1369 1.03777 16.0649 0.986598 15.9848 0.951018C15.9048 0.915438 15.8183 0.896068 15.7306 0.894179V0.894775ZM11.7266 7.36194C9.92688 7.36194 8.45896 8.81977 8.45896 10.5979C8.45896 12.3761 9.92688 13.8264 11.7266 13.8264C13.5263 13.8264 15.0019 12.3761 15.0019 10.5979C15.0019 8.81977 13.5263 7.36194 11.7266 7.36194ZM11.7266 8.6603C12.8188 8.6603 13.6979 9.51878 13.6979 10.5979C13.6979 11.677 12.8188 12.5355 11.7266 12.5355C10.6344 12.5355 9.76295 11.677 9.76293 10.5979C9.76293 9.51878 10.6344 8.6603 11.7266 8.6603Z" fill="white"/>
</svg>
