<svg width="30" height="30" viewBox="0 0 30 30" fill="none" xmlns="http://www.w3.org/2000/svg">
<path fill-rule="evenodd" clip-rule="evenodd" d="M11.6988 4.44904C12.5741 3.57376 13.7612 3.08203 14.9991 3.08203C16.2369 3.08203 17.424 3.57376 18.2993 4.44904C19.1746 5.32433 19.6663 6.51146 19.6663 7.7493V14.5951C19.6663 15.8329 19.1746 17.0201 18.2993 17.8954C17.424 18.7706 16.2369 19.2624 14.9991 19.2624C13.7612 19.2624 12.5741 18.7706 11.6988 17.8954C10.8235 17.0201 10.3318 15.8329 10.3318 14.5951V7.7493C10.3318 6.51146 10.8235 5.32433 11.6988 4.44904ZM17.1992 16.7953C17.7828 16.2118 18.1106 15.4203 18.1106 14.5951V7.7493C18.1106 6.92408 17.7828 6.13265 17.1992 5.54913C16.6157 4.96561 15.8243 4.63779 14.9991 4.63779C14.1738 4.63779 13.3824 4.96561 12.7989 5.54913C12.2154 6.13265 11.8876 6.92408 11.8876 7.7493V14.5951C11.8876 15.4203 12.2154 16.2118 12.7989 16.7953C13.3824 17.3788 14.1738 17.7066 14.9991 17.7066C15.8243 17.7066 16.6157 17.3788 17.1992 16.7953ZM14.2209 25.572V22.3379C12.2459 22.1419 10.4138 21.2198 9.07977 19.7503C7.74572 18.2807 7.0046 16.3683 7 14.3836C7.01106 14.1847 7.09783 13.9977 7.2425 13.8608C7.38717 13.724 7.57874 13.6477 7.77788 13.6477C7.97701 13.6477 8.16859 13.724 8.31326 13.8608C8.45792 13.9977 8.5447 14.1847 8.55576 14.3836C8.55576 16.0927 9.2347 17.7318 10.4432 18.9403C11.6518 20.1489 13.2909 20.8278 15 20.8278C16.7091 20.8278 18.3482 20.1489 19.5568 18.9403C20.7653 17.7318 21.4442 16.0927 21.4442 14.3836C21.4553 14.1847 21.5421 13.9977 21.6867 13.8608C21.8314 13.724 22.023 13.6477 22.2221 13.6477C22.4213 13.6477 22.6128 13.724 22.7575 13.8608C22.9022 13.9977 22.9889 14.1847 23 14.3836C22.9954 16.3683 22.2543 18.2807 20.9202 19.7503C19.5862 21.2198 17.7541 22.1419 15.7791 22.3379V25.572H18.8906C18.9964 25.5661 19.1023 25.5819 19.2018 25.6183C19.3012 25.6548 19.3923 25.7111 19.4692 25.7839C19.5462 25.8567 19.6075 25.9445 19.6494 26.0418C19.6913 26.1391 19.7129 26.2439 19.7129 26.3499C19.7129 26.4559 19.6913 26.5607 19.6494 26.658C19.6075 26.7553 19.5462 26.8431 19.4692 26.9159C19.3923 26.9887 19.3012 27.045 19.2018 27.0815C19.1023 27.1179 18.9964 27.1337 18.8906 27.1278H11.1094C11.0036 27.1337 10.8977 27.1179 10.7982 27.0815C10.6988 27.045 10.6077 26.9887 10.5308 26.9159C10.4538 26.8431 10.3925 26.7553 10.3506 26.658C10.3087 26.5607 10.2871 26.4559 10.2871 26.3499C10.2871 26.2439 10.3087 26.1391 10.3506 26.0418C10.3925 25.9445 10.4538 25.8567 10.5308 25.7839C10.6077 25.7111 10.6988 25.6548 10.7982 25.6183C10.8977 25.5819 11.0036 25.5661 11.1094 25.572H14.2209Z" fill="#303B5F"/>
</svg>
