<svg width="30" height="30" viewBox="0 0 30 30" fill="none" xmlns="http://www.w3.org/2000/svg">
<path fill-rule="evenodd" clip-rule="evenodd" d="M14.9991 3.08203C13.7612 3.08203 12.5741 3.57376 11.6988 4.44904C10.8235 5.32433 10.3318 6.51146 10.3318 7.7493V14.5951C10.3318 15.5966 10.6537 16.5649 11.2401 17.3617L11.9521 15.2257C11.9095 15.0198 11.8876 14.8086 11.8876 14.5951V7.7493C11.8876 6.92408 12.2154 6.13265 12.7989 5.54913C13.3824 4.96561 14.1738 4.63779 14.9991 4.63779C15.1575 4.63779 15.3148 4.64988 15.4695 4.67354L15.9662 3.18332C15.6506 3.11646 15.3266 3.08203 14.9991 3.08203ZM19.543 6.68332L18.1106 10.9805V14.5951C18.1106 15.4203 17.7828 16.2118 17.1992 16.7953C16.8372 17.1574 16.395 17.421 15.9145 17.5689L15.3545 19.2488C16.4623 19.1643 17.5082 18.6865 18.2993 17.8954C19.1746 17.0201 19.6663 15.8329 19.6663 14.5951V7.7493C19.6663 7.38747 19.6243 7.02996 19.543 6.68332ZM10.6484 19.1367C10.5788 19.0729 10.5103 19.0074 10.4432 18.9403C9.2347 17.7318 8.55576 16.0927 8.55576 14.3836C8.5447 14.1847 8.45792 13.9977 8.31326 13.8608C8.16859 13.724 7.97701 13.6477 7.77788 13.6477C7.57874 13.6477 7.38717 13.724 7.2425 13.8608C7.09783 13.9977 7.01106 14.1847 7 14.3836C7.0046 16.3683 7.74572 18.2807 9.07977 19.7503C9.40044 20.1035 9.74987 20.4251 10.1231 20.7126L10.6484 19.1367ZM14.2209 22.6495L14.8289 20.8255C14.8859 20.827 14.9429 20.8278 15 20.8278C16.7091 20.8278 18.3482 20.1489 19.5568 18.9403C20.7653 17.7318 21.4442 16.0927 21.4442 14.3836C21.4553 14.1847 21.5421 13.9977 21.6867 13.8608C21.8314 13.724 22.023 13.6477 22.2221 13.6477C22.4213 13.6477 22.6128 13.724 22.7575 13.8608C22.9022 13.9977 22.9889 14.1847 23 14.3836C22.9954 16.3683 22.2543 18.2807 20.9202 19.7503C19.5862 21.2198 17.7541 22.1419 15.7791 22.3379V25.572H18.8906C18.9964 25.5661 19.1023 25.5819 19.2018 25.6183C19.3012 25.6548 19.3923 25.7111 19.4692 25.7839C19.5462 25.8567 19.6075 25.9445 19.6494 26.0418C19.6913 26.1391 19.7129 26.2439 19.7129 26.3499C19.7129 26.4559 19.6913 26.5607 19.6494 26.658C19.6075 26.7553 19.5462 26.8431 19.4692 26.9159C19.3923 26.9887 19.3012 27.045 19.2018 27.0815C19.1023 27.1179 18.9964 27.1337 18.8906 27.1278H12.7282L13.2468 25.572H14.2209V22.6495Z" fill="#303B5F"/>
<line x1="18.2115" y1="3.3192" x2="10.2115" y2="27.3192" stroke="#303B5F" stroke-width="1.5"/>
</svg>
