<svg width="30" height="30" viewBox="0 0 30 30" fill="none" xmlns="http://www.w3.org/2000/svg">
<path fill-rule="evenodd" clip-rule="evenodd" d="M9.1672 21.059L10.6523 23.6313L12.1641 21.0127H21C24.3137 21.0127 27 18.3264 27 15.0127V11.25C27 7.93629 24.3137 5.25 21 5.25H9C5.68629 5.25 3 7.93629 3 11.25V15.0127C3 18.1239 5.36916 20.6836 8.40079 20.9833L9.1672 21.059ZM10.6523 26.6313L8.25323 22.476C4.46169 22.1012 1.5 18.9028 1.5 15.0127V11.25C1.5 7.10786 4.85786 3.75 9 3.75H21C25.1421 3.75 28.5 7.10786 28.5 11.25V15.0127C28.5 19.1549 25.1421 22.5127 21 22.5127H13.0301L10.6523 26.6313Z" fill="white"/>
<path fill-rule="evenodd" clip-rule="evenodd" d="M22.4999 10.95H6.8999V9.44995H22.4999V10.95Z" fill="white"/>
<path fill-rule="evenodd" clip-rule="evenodd" d="M18.8999 15.75H6.8999V14.25H18.8999V15.75Z" fill="white"/>
</svg>
