<svg width="30" height="30" viewBox="0 0 30 30" fill="none" xmlns="http://www.w3.org/2000/svg">
<path d="M17.5984 26.5786V26.5871L17.5986 26.5956C17.6201 27.5417 16.8423 28.332 15.8762 28.332H14.1551C13.1924 28.332 12.4016 27.5413 12.4016 26.5786V25.5772V25.0275L11.8775 24.862C11.3349 24.6906 10.8106 24.4589 10.2659 24.1866L9.78238 23.9449L9.40014 24.3271L8.68039 25.0468C8.35917 25.3681 7.92745 25.5469 7.427 25.5469C6.92655 25.5469 6.49482 25.3681 6.1736 25.0468L4.95316 23.8264C4.63194 23.5052 4.45308 23.0734 4.45308 22.573C4.45308 22.0726 4.63194 21.6408 4.95316 21.3196L5.67291 20.5999L6.05515 20.2176L5.8134 19.7341C5.54106 19.1894 5.30935 18.6651 5.13802 18.1225L4.9725 17.5984H4.42283H3.42144C2.45875 17.5984 1.66797 16.8076 1.66797 15.8449V14.1238C1.66797 13.1611 2.45874 12.3703 3.42144 12.3703H4.42283H4.9725L5.13802 11.8462C5.30935 11.3036 5.54106 10.7793 5.8134 10.2346L6.05515 9.75109L5.67291 9.36885L4.95316 8.6491C4.63194 8.32788 4.45308 7.89615 4.45308 7.3957C4.45308 6.89526 4.63194 6.46353 4.95316 6.14231L6.1736 4.92187C6.49482 4.60065 6.92655 4.42179 7.427 4.42179C7.92744 4.42179 8.35917 4.60065 8.68039 4.92187L9.40014 5.64161L9.78238 6.02386L10.2659 5.78211C10.8106 5.50977 11.3349 5.27806 11.8775 5.10672L12.4016 4.9412V4.39154V3.42144C12.4016 2.45874 13.1924 1.66797 14.1551 1.66797H15.8762C16.8389 1.66797 17.6297 2.45874 17.6297 3.42144V4.42283V4.9725L18.1538 5.13802C18.6964 5.30935 19.2207 5.54106 19.7654 5.8134L20.2489 6.05515L20.6312 5.67291L21.3509 4.95316C21.6721 4.63194 22.1038 4.45308 22.6043 4.45308C23.1047 4.45308 23.5365 4.63194 23.8577 4.95316L25.0781 6.1736C25.7553 6.85081 25.7553 7.97189 25.0781 8.6491L24.3584 9.36884L23.9761 9.75109L24.2179 10.2346C24.4902 10.7793 24.7219 11.3036 24.8933 11.8462L25.0588 12.3703H25.6085H26.5786C27.5413 12.3703 28.332 13.1611 28.332 14.1238V15.8449C28.332 16.8076 27.5413 17.5984 26.5786 17.5984H25.5772H25.0275L24.862 18.1225C24.6906 18.6651 24.4589 19.1894 24.1866 19.7341L23.9449 20.2176L24.3271 20.5999L25.0468 21.3196C25.724 21.9968 25.724 23.1179 25.0468 23.7951L23.8264 25.0155C23.5052 25.3368 23.0734 25.5156 22.573 25.5156C22.0726 25.5156 21.6408 25.3368 21.3196 25.0155L20.5999 24.2958L20.2176 23.9136L19.7341 24.1553C19.1894 24.4276 18.6651 24.6593 18.1225 24.8307L17.5984 24.9962V25.5459V26.5786Z" stroke="white" stroke-width="1.5"/>
<circle cx="15" cy="15" r="5.58691" stroke="white" stroke-width="1.5"/>
</svg>
