<svg width="30" height="30" viewBox="0 0 30 30" fill="none" xmlns="http://www.w3.org/2000/svg">
<mask id="path-1-outside-1_181:5069" maskUnits="userSpaceOnUse" x="5.42676" y="0.0820312" width="19" height="30" fill="black">
<rect fill="white" x="5.42676" y="0.0820312" width="19" height="30"/>
<path fill-rule="evenodd" clip-rule="evenodd" d="M15.1305 28.082C13.2042 28.0818 11.1309 26.7336 11.1309 23.2672C11.1309 17.9394 9.88462 15.8764 8.83788 14.1437C8.08003 12.8892 7.42676 11.8078 7.42676 9.78574C7.42676 5.93399 10.3155 2.08225 15.1305 2.08203M15.1309 28.082C17.0567 28.0818 19.131 26.7336 19.131 23.2672C19.131 17.9394 20.377 15.8764 21.4234 14.1437C22.1811 12.8892 22.8342 11.8078 22.8342 9.78574C22.8342 5.93399 19.9456 2.08225 15.1309 2.08203"/>
</mask>
<path d="M15.8805 2.08203V28.082H14.3805V2.08203H15.8805ZM15.8809 2.08203V28.082H14.3809V2.08203H15.8809ZM8.83788 14.1437L10.1218 13.3681L8.83788 14.1437ZM21.4234 14.1437L22.7074 14.9191V14.9191L21.4234 14.1437ZM12.6309 23.2672C12.6309 24.6934 13.0498 25.4883 13.4768 25.9216C13.9154 26.3668 14.5106 26.582 15.1306 26.582L15.1303 29.582C13.8241 29.5819 12.4195 29.1229 11.3399 28.0273C10.2486 26.9199 9.63086 25.3075 9.63086 23.2672H12.6309ZM10.1218 13.3681C10.6513 14.2446 11.3068 15.3238 11.807 16.9048C12.3054 18.48 12.6309 20.4855 12.6309 23.2672H9.63086C9.63086 20.7212 9.33321 19.0312 8.94677 17.8098C8.56219 16.5942 8.07121 15.7755 7.55397 14.9193L10.1218 13.3681ZM8.92676 9.78574C8.92676 11.3765 9.39178 12.1596 10.1218 13.3681L7.55397 14.9193C6.76828 13.6187 5.92676 12.239 5.92676 9.78574H8.92676ZM15.1305 3.58203C11.2641 3.58221 8.92676 6.63693 8.92676 9.78574H5.92676C5.92676 5.23106 9.36688 0.582296 15.1304 0.582031L15.1305 3.58203ZM20.631 23.2672C20.631 25.3077 20.0129 26.9201 18.9214 28.0274C17.8417 29.1229 16.437 29.5819 15.131 29.582L15.1307 26.582C15.7506 26.582 16.3459 26.3668 16.7848 25.9215C17.212 25.4881 17.631 24.6932 17.631 23.2672H20.631ZM22.7074 14.9191C22.1903 15.7754 21.6995 16.5941 21.315 17.8097C20.9286 19.0312 20.631 20.7211 20.631 23.2672H17.631C17.631 20.4855 17.9564 18.4801 18.4546 16.9049C18.9547 15.3239 19.6101 14.2447 20.1394 13.3682L22.7074 14.9191ZM24.3342 9.78574C24.3342 12.2389 23.4929 13.6185 22.7074 14.9191L20.1394 13.3682C20.8692 12.1598 21.3342 11.3766 21.3342 9.78574H24.3342ZM15.1309 0.582031C20.8943 0.582296 24.3342 5.23114 24.3342 9.78574H21.3342C21.3342 6.63685 18.9969 3.58221 15.1308 3.58203L15.1309 0.582031Z" fill="white" mask="url(#path-1-outside-1_181:5069)"/>
<line x1="10.1309" y1="23.332" x2="20.1309" y2="23.332" stroke="white" stroke-width="1.5"/>
<path d="M16.1309 5.08203H16.8809V2.46693L15.4949 4.68453L16.1309 5.08203ZM16.1309 10.082H15.3809V10.832H16.1309V10.082ZM11.1309 13.082L10.4949 12.6845L9.77767 13.832H11.1309V13.082ZM14.1309 13.082H14.8809V12.332H14.1309V13.082ZM14.1309 18.082H13.3809L13.3809 20.6971L14.7669 18.4795L14.1309 18.082ZM19.1309 10.082L19.7669 10.4795L20.484 9.33203H19.1309V10.082ZM15.3809 5.08203V10.082H16.8809V5.08203H15.3809ZM11.7669 13.4795L16.7669 5.47953L15.4949 4.68453L10.4949 12.6845L11.7669 13.4795ZM14.1309 12.332H11.1309V13.832H14.1309V12.332ZM14.8809 18.082L14.8809 13.082H13.3809L13.3809 18.082H14.8809ZM18.4949 9.68453L13.4949 17.6845L14.7669 18.4795L19.7669 10.4795L18.4949 9.68453ZM16.1309 10.832L19.1309 10.832V9.33203L16.1309 9.33203V10.832Z" fill="white"/>
</svg>
