<svg width="22" height="22" viewBox="0 0 22 22" fill="none" xmlns="http://www.w3.org/2000/svg">
<path d="M2.39244 2.39393C4.5172 0.269731 7.9618 0.269731 10.086 2.39393L13.1215 5.42832C12.8812 5.40219 12.6384 5.39095 12.3944 5.39095C11.6261 5.39095 10.8791 5.513 10.1719 5.74828L8.45178 4.02875C7.86099 3.43733 7.07532 3.11235 6.23984 3.11235C5.40428 3.11235 4.61861 3.43733 4.02782 4.02875C3.43699 4.61894 3.11213 5.40338 3.11213 6.2401C3.11213 7.07558 3.43699 7.86125 4.02782 8.45144L7.39337 11.817C7.98411 12.4085 8.76983 12.7334 9.60531 12.7334C10.4421 12.7334 11.2265 12.4085 11.8178 11.817C12.1055 11.5306 12.3296 11.1969 12.484 10.8333C12.8675 10.8545 13.2261 11.0139 13.5 11.2878L14.3965 12.1854C14.1512 12.6399 13.8362 13.0682 13.4527 13.453C11.3285 15.5773 7.88331 15.5773 5.75855 13.453L2.3924 10.0862C0.268877 7.96214 0.268876 4.51813 2.39244 2.39393Z" fill="white"/>
<path d="M9.56939 16.6103C10.3389 16.6103 11.0934 16.4858 11.8168 16.2405L13.5487 17.9726C14.1389 18.564 14.9245 18.889 15.76 18.889C16.5955 18.889 17.3799 18.564 17.9714 17.9726C18.5628 17.3823 18.8878 16.5967 18.8878 15.7612C18.8878 14.9257 18.5628 14.14 17.9714 13.5486L14.6058 10.1831C14.0144 9.5929 13.23 9.26792 12.3945 9.26792C11.5578 9.26792 10.7733 9.5929 10.1826 10.1831C9.89489 10.4707 9.67028 10.8044 9.51516 11.168C9.13042 11.148 8.77121 10.9874 8.49727 10.7135L7.60202 9.81703C7.84731 9.36128 8.16297 8.93298 8.54708 8.54823C10.6712 6.42403 14.1164 6.42403 16.2406 8.54823L19.6061 11.9151C21.7315 14.0393 21.7315 17.4832 19.6061 19.6087C17.482 21.7329 14.038 21.7329 11.9139 19.6087L8.8833 16.5781C9.10926 16.5991 9.33773 16.6104 9.56812 16.6104L9.56939 16.6103Z" fill="white"/>
</svg>
