<svg width="26" height="26" viewBox="0 0 26 26" fill="none" xmlns="http://www.w3.org/2000/svg">
<path fill-rule="evenodd" clip-rule="evenodd" d="M2.79948 6.13678C4.6068 6.13678 5.7061 4.94229 5.7061 3.46878C5.67117 1.95837 4.6068 0.800781 2.87168 0.800781C1.13423 0.800781 0 1.95837 0 3.46878C0 4.94229 1.0993 6.13447 2.79948 6.13678ZM0.14207 8.23981V25.4008H5.52909V8.23981H0.14207ZM8.61035 8.23983C8.68255 9.78483 8.75242 11.5743 8.75242 13.7142V25.4008H14.1418V15.5036C14.1418 15.0124 14.1767 14.5213 14.3188 14.1708C14.7101 13.1884 15.5951 12.1715 17.0833 12.1715C19.0327 12.1715 19.8129 13.6796 19.8129 15.891V25.4008H25.2V15.2592C25.2 10.2068 22.5425 7.85474 18.9978 7.85474C16.0912 7.85474 14.3537 9.5035 13.6457 10.6265H13.5386L13.2894 8.23983H8.61035Z" fill="white"/>
</svg>
