<svg xmlns="http://www.w3.org/2000/svg" xmlns:xlink="http://www.w3.org/1999/xlink" id="Layer_1" version="1.1" viewBox="350.34 245.26 451.45 231.64">
  <!-- Generator: Adobe Illustrator 29.1.0, SVG Export Plug-In . SVG Version: 2.1.0 Build 142)  -->
  <defs>
    <style>
      .st0 {
        fill: none;
      }

      .st1 {
        clip-path: url(#clippath);
      }
    </style>
    <clipPath id="clippath">
      <rect class="st0" x="350.4" y="192.4" width="451.3" height="284.5"/>
    </clipPath>
  </defs>
  <g class="st1">
    <g>
      <path d="M661.9,251.2c-.5,1.4-17.1,44.6-20.2,52.5-4.3,10.8-8.1,21.8-11.2,33.1,15.7-21.1,28.5-36.4,54.2-44.7,10,1.3-11.9,14.4-16.1,17.1-12,7.7-22.3,23.6-21.1,26.5,12.5,28.1,37.4,5.2,43.6,2.5,20.3-9.1,17-20.3,25-38,5.6-12.3,23.4-43,32-52.1,6.3-6.6,10.6,0,8.4,2.9-20.3,27.1-42.6,58.4-44,93.4,23.9-8.7,7.7,8.5-2.5,13-15.5,6.7-7-11.3-9.2-13.7-18.5,8.9-47.8,26.9-58.1.7-9.2,2.3-7.2,14.7-16.1,19.5-11.9,6.4-4.5-23.4-3.2-29.1,7.2-29.1,32.6-83.8,33.4-85.8.9-2,3.4-2,4.3-1.4.9.6,1.1,2.4.6,3.7h0s0,0,0,0Z"/>
      <path d="M491.4,309.8c-6.1-5.2-21.3,4.1-27.9,10-7.1,6.3-12.5,14.2-17.9,21.9,3.5-9.2,7.1-18.4,10.7-27.6.7-1.9,1.4-4.2.2-5.8-1.2-1.5-3.7-1.5-5.3-.4-1.6,1.1-2.5,2.9-3.4,4.7-8.2,16.8-15,34.6-16.6,53.1-.2,2.7.3,6.2,3,6.5,2.3.3,3.8-2.1,4.8-4.1,5.7-11.7,12-23.3,20.5-33.3,4.6-5.5,9.6-10.9,15.7-14.7,10-6.2,19.1-7.6,16.4-10.6h0s0,0,0,0h0Z"/>
      <path d="M605.8,303.4c-10.3-10.1-27.8,22.3-36,27.3,0-6.7,4.7-11.2,3.8-18.6-2.3-18.6-13.6,2.1-17.3,8.5-7,12.4-13,31.4-26.1,35.5-2.7-2.4,1.6-23.6,2.3-27.6.7-4,4.9-12,5.8-15.5.8-3.5-3-13.4-13.1-12.7-8.6.6-16,5.4-21.9,11.3-3,3-5.7,6.3-8.2,9.7-2.7,3.7-6,7.1-8.6,10.9-4.6,6.6-8.5,14.2-8.8,22.4,0,2.1,0,4.3.5,6.4,1.5,7.3,9.5,9.3,11.8,9.1,11-1.2,22.9-16,31-23.7,0,0-1,12.3,5.2,16.8,16.8,5.2,26.6-26.3,37.5-39,1.4,7.8-11.5,38-5,41.5,6.8,3,7.9-6.9,10.5-13.7,3.2-8.1,23.1-38.9,30.2-41.3,3.2-1.1,2.2,0,2.9,2.3,3.1,10.4-.4,38.9,2.1,46.4,1,3.1,4.9,4.4,8.3,2.7,1.3-.7.9-3.6.9-10.2.2-15-.9-41.8-7.8-48.5h0c0,0,0,0,0,0ZM490.1,362.7c-8,0-6.9-10.4-4.4-16.2.7-1.7,11.2-15.9,13.1-18.1,4-4.7,24-22,30-15.5.2,16.4-25,49.9-38.7,49.8h0Z"/>
      <path d="M486.8,371.5c-.3,0-.6,0-.9,0,.3,0,.6,0,.9,0Z"/>
      <path d="M456.8,263.4c3.4-.3,4.6.5,5.1,1.1.6.5,1.2,1.5,1.2,3.5,0,3-2.6,3.5-5.2,3.6-17.1.3-34.3,2.8-50.8,7-2.4.6-4.7,1.2-7,2-11,3.4-9.9,8.7-12.2,15.5-1.1,3.2-2.1,6.6-3,9.9-2.8,9.7-2.8,7.9,5.3,6.2,9.1-1.9,31-5.9,43.8-7.6,3.8-.5,10.1.3,7.5,3.7-3.8,4.4-8.2,3.7-10.9,4.3-13.9,1.7-28.5,4.8-42.1,7.4-3.2.7-3.1.5-6.8,1.3-1.4.3-1.6,2-1.8,3.1-.5,1.9-1.2,3.6-1.8,5.5-1.5,4.3-2.3,7.9-4.6,13.8-2.3,5.9-4,10.6-6.2,17.4-2.2,6.9-1.8,8.9-4.5,14.3-2.2,4.4-3.7,9.1-10.2,7.9-1.7-.3-2.5-2.4-2.2-3.9.3-2.4,2.2-6.4,6.6-16.3,8.1-18,8.5-18.4,13.6-37.3,1.2-4.2.6-4-7.5-1.2-2.1.7-7.7-3.8-1.9-6,3.1-1.1,7.6-2.2,9.9-2.8,3-.8,3.2-.6,4-3.9.8-3.6,1.7-7.4,2.8-11.1,2.2-9.7,4.8-24.2,15.8-26.3,8.7-1.6,17.5-3.9,26.1-5.6,6.9-1,13.6-2.3,20.5-3.3,3.2-.4,6.4-.9,8.7-1.2,2.3-.3,4.3-.6,7.7-.8h0Z"/>
      <path d="M799.7,314.5c-5.7,27.3-13.1,55-31.7,76.5-10.8,12.4-23.8,21.8-39,27.9-17.1,6.8-35.5,9.9-53.8,11.5-30,1.9-32.6-9.8-16.5,33.3,16.8,34.5-42.3-7-65.9-28.9-.3-.3-.6-.6-.8-.8-.4,0-.7,0-1.1,0-12.8.8-33.7,2-58.4,2s-56.8-1.4-86.3-6.3c-2.1-.3-3.4-2.3-3.1-4.4.4-2,2.3-3.4,4.3-3.1,56.6,9.4,117,5.8,143.1,4.2.4,0,.9,0,1.3,0,.5-.2,1.2-.3,2-.2l3.9-.4c1.4,0,2.9,1.1,3.8,2.1,12.1,13.6,31.8,31.4,46.4,35-2.7-10.2-17.4-38.7,5.1-39.5,22,.5,45.8-1.1,66.4-9.2,13.5-5.3,26.5-12.4,37.5-22.1,10.8-9.5,17.9-21.8,23.2-35.1,5-12.8,7.1-26.6,12.1-39.2-1.3,3.2-8.5,18.4-20,28.9-10.3,9.5-41.2,22.6-34.4-7.7.7-3.2,8.9-25.1,11.2-29.1,1.5-2.6,3.7-9.3,6-7.1,0,0,0,0,0,0,2.6,2.8,1.7,5.1-2.2,14.2-4.6,12.3-8,25.5-6.2,27,7.9,5.9,19.5-4.8,24.8-9.7,5.5-5.1,10.4-10.9,14.9-16.9,2.5-3.3,4.8-6.6,7.1-10,1-1.5,4.3-8.9,6.2-8.6.8.1,1.4.8,1.6,1.5,1.6,4.3-.5,9.7-1.4,14Z"/>
    </g>
  </g>
</svg>