<svg width="26" height="18" viewBox="0 0 26 18" fill="none" xmlns="http://www.w3.org/2000/svg">
<path d="M3.05876 0.599609C1.60109 0.599609 0.399902 1.79038 0.399902 3.23535V14.9497C0.399902 16.3947 1.60109 17.5855 3.05876 17.5855H22.557C24.0147 17.5855 25.2159 16.3947 25.2159 14.9497V3.23535C25.2159 1.79038 24.0147 0.599609 22.557 0.599609H3.05876ZM3.25262 2.35677H22.3724L13.3526 10.3372C13.0088 10.6415 12.6263 10.6419 12.2817 10.3372L3.25262 2.35677ZM2.17247 3.75698L8.24722 9.12915L2.17247 14.9131V3.75698ZM23.4433 3.75698V14.904L17.387 9.12001L23.4433 3.75698ZM16.0576 10.3006L21.8462 15.8283H3.76962L9.57665 10.3097L11.1 11.6551C12.0683 12.5109 13.5659 12.5123 14.5343 11.6551L16.0576 10.3006Z" fill="white"/>
</svg>
