<svg width="20" height="21" viewBox="0 0 20 21" fill="none" xmlns="http://www.w3.org/2000/svg">
<path d="M4.53467 8.53696L4.53467 2.0843C4.53467 1.86339 4.71375 1.6843 4.93467 1.6843L18.3012 1.6843C18.5221 1.6843 18.7012 1.86338 18.7012 2.0843L18.7012 15.5167C18.7012 15.7377 18.5221 15.9167 18.3012 15.9167L11.7168 15.9167" stroke="#303B5F" stroke-width="1.5"/>
<path d="M1.28076 12.5608L1.28076 18.284C1.28076 18.9191 1.79564 19.434 2.43076 19.434L7.9563 19.434C8.59142 19.434 9.1063 18.9191 9.1063 18.284L9.1063 12.5608C9.1063 11.9256 8.59142 11.4108 7.9563 11.4108L2.43076 11.4108C1.79563 11.4108 1.28076 11.9256 1.28076 12.5608Z" stroke="#303B5F" stroke-width="1.5"/>
<path d="M10.1819 6.72888L13.8718 6.72888M13.8718 6.72888L13.8718 10.5506M13.8718 6.72888L10.1819 10.5506" stroke="#303B5F" stroke-width="1.5"/>
</svg>
