<svg width="15" height="24" viewBox="0 0 15 24" fill="none" xmlns="http://www.w3.org/2000/svg">
<path d="M7.49983 0.728027C6.33936 0.728027 5.22642 1.18902 4.40584 2.0096C3.58526 2.83018 3.12427 3.94312 3.12427 5.10359V11.5215C3.12427 12.682 3.58526 13.795 4.40584 14.6155C5.22642 15.4361 6.33936 15.8971 7.49983 15.8971C8.6603 15.8971 9.77324 15.4361 10.5938 14.6155C11.4144 13.795 11.8754 12.682 11.8754 11.5215V5.10359C11.8754 3.94312 11.4144 2.83018 10.5938 2.0096C9.77324 1.18902 8.6603 0.728027 7.49983 0.728027V0.728027ZM10.4169 11.5215C10.4169 12.2952 10.1095 13.0371 9.56249 13.5842C9.01544 14.1313 8.27348 14.4386 7.49983 14.4386C6.72618 14.4386 5.98422 14.1313 5.43717 13.5842C4.89012 13.0371 4.58279 12.2952 4.58279 11.5215V5.10359C4.58279 4.32994 4.89012 3.58798 5.43717 3.04093C5.98422 2.49388 6.72618 2.18655 7.49983 2.18655C8.27348 2.18655 9.01544 2.49388 9.56249 3.04093C10.1095 3.58798 10.4169 4.32994 10.4169 5.10359V11.5215Z" fill="#474752"/>
<path d="M6.76961 18.7804V21.8124H3.85257C3.75339 21.8069 3.65413 21.8217 3.56086 21.8558C3.46758 21.89 3.38225 21.9428 3.31009 22.0111C3.23793 22.0793 3.18045 22.1616 3.14117 22.2528C3.10188 22.3441 3.08162 22.4424 3.08162 22.5417C3.08162 22.641 3.10188 22.7393 3.14117 22.8305C3.18045 22.9218 3.23793 23.004 3.31009 23.0723C3.38225 23.1406 3.46758 23.1934 3.56086 23.2275C3.65413 23.2617 3.75339 23.2765 3.85257 23.271H11.1474C11.2466 23.2765 11.3459 23.2617 11.4391 23.2275C11.5324 23.1934 11.6177 23.1406 11.6899 23.0723C11.7621 23.004 11.8196 22.9218 11.8588 22.8305C11.8981 22.7393 11.9184 22.641 11.9184 22.5417C11.9184 22.4424 11.8981 22.3441 11.8588 22.2528C11.8196 22.1616 11.7621 22.0793 11.6899 22.0111C11.6177 21.9428 11.5324 21.89 11.4391 21.8558C11.3459 21.8217 11.2466 21.8069 11.1474 21.8124H8.23039V18.7804C10.082 18.5967 11.7995 17.7322 13.0502 16.3545C14.3009 14.9768 14.9957 13.184 15 11.3232C14.9896 11.1368 14.9083 10.9615 14.7727 10.8332C14.637 10.7049 14.4574 10.6334 14.2707 10.6334C14.0841 10.6334 13.9044 10.7049 13.7688 10.8332C13.6332 10.9615 13.5518 11.1368 13.5415 11.3232C13.5415 12.9255 12.905 14.4622 11.772 15.5952C10.639 16.7282 9.1023 17.3647 7.5 17.3647C5.8977 17.3647 4.36103 16.7282 3.22803 15.5952C2.09503 14.4622 1.45852 12.9255 1.45852 11.3232C1.44815 11.1368 1.3668 10.9615 1.23118 10.8332C1.09555 10.7049 0.91595 10.6334 0.729261 10.6334C0.542572 10.6334 0.362969 10.7049 0.227344 10.8332C0.0917187 10.9615 0.0103676 11.1368 0 11.3232C0.00431028 13.184 0.699109 14.9768 1.94979 16.3545C3.20046 17.7322 4.91799 18.5967 6.76961 18.7804V18.7804Z" fill="#474752"/>
</svg>
