<svg width="130" height="130" viewBox="0 0 130 130" fill="none" xmlns="http://www.w3.org/2000/svg">
<path d="M0 65C0 29.1015 29.1015 0 65 0C100.899 0 130 29.1015 130 65C130 100.899 100.899 130 65 130C29.1015 130 0 100.899 0 65Z" fill="#B2B9C5"/>
<path d="M41.6875 41.6898C47.4421 35.9367 56.7712 35.9367 62.5242 41.6898L70.7455 49.9079C70.0947 49.8371 69.4371 49.8067 68.7761 49.8067C66.6955 49.8067 64.6723 50.1372 62.7569 50.7745L58.0982 46.1174C56.4982 44.5156 54.3703 43.6355 52.1076 43.6355C49.8446 43.6355 47.7167 44.5156 46.1167 46.1174C44.5165 47.7159 43.6367 49.8404 43.6367 52.1065C43.6367 54.3692 44.5165 56.4971 46.1167 58.0955L55.2317 67.2107C56.8316 68.8126 58.9596 69.6925 61.2224 69.6925C63.4886 69.6925 65.613 68.8126 67.2147 67.2107C67.9937 66.435 68.6006 65.5312 69.0188 64.5465C70.0575 64.6038 71.0286 65.0354 71.7705 65.7772L74.1985 68.2084C73.5342 69.4392 72.681 70.5993 71.6423 71.6415C65.8894 77.3948 56.5586 77.3948 50.8041 71.6415L41.6874 62.5231C35.9362 56.7703 35.9362 47.4428 41.6875 41.6898Z" fill="white"/>
<path d="M61.1249 80.1904C63.209 80.1904 65.2524 79.8532 67.2115 79.1888L71.9023 83.8798C73.5007 85.4817 75.6284 86.3617 77.8912 86.3617C80.154 86.3617 82.2784 85.4817 83.8803 83.8798C85.482 82.2812 86.3622 80.1536 86.3622 77.8907C86.3622 75.6279 85.482 73.4999 83.8803 71.8983L74.7652 62.7833C73.1635 61.1849 71.0389 60.3047 68.7762 60.3047C66.5101 60.3047 64.3856 61.1849 62.7856 62.7833C62.0065 63.5622 61.3982 64.466 60.978 65.4506C59.936 65.3967 58.9632 64.9617 58.2212 64.2199L55.7966 61.7919C56.4609 60.5576 57.3158 59.3976 58.3561 58.3556C64.1091 52.6025 73.4398 52.6025 79.1928 58.3556L88.3078 67.474C94.0641 73.2273 94.0641 82.5545 88.3078 88.3109C82.5548 94.0641 73.2273 94.0641 67.4745 88.3109L59.2667 80.103C59.8787 80.1601 60.4975 80.1907 61.1215 80.1907L61.1249 80.1904Z" fill="white"/>
</svg>
