<svg width="20" height="20" viewBox="0 0 20 20" fill="none" xmlns="http://www.w3.org/2000/svg">
    <path d="M9.26173 1.75C10.4998 1.7563 11.5 2.76119 11.5 4V4.027C11.5 4.30052 11.4364 4.56896 11.3159 4.80923L11.3154 4.8102L10.8882 5.66459L10.3455 6.75H11.559H14.446C15.1528 6.75 15.7536 7.1939 15.9324 7.79523C16.0559 8.21245 16.0043 8.61793 15.8212 8.95465L15.5338 9.48312L15.9873 9.87835C16.3084 10.1582 16.5 10.5615 16.5 11C16.5 11.4386 16.3083 11.842 15.9871 12.1218L15.5336 12.5169L15.8208 13.0454C15.9371 13.2595 16 13.4995 16 13.75C16 14.1019 15.9125 14.3616 15.764 14.5695C15.6108 14.7841 15.3555 14.9947 14.9406 15.179L14.4291 15.4062L14.5013 15.9611C14.5389 16.2501 14.425 16.4941 14.1358 16.738C13.8578 16.9724 13.4769 17.1466 13.144 17.2496C11.5573 17.2374 9.98244 16.9503 8.49014 16.4013L5.79289 15.407L5.774 15.4001L5.75476 15.3941C5.44565 15.2987 5.12277 15.25 4.799 15.25H4V7.75H4.796C5.15746 7.75 5.49988 7.5936 5.73703 7.32275L5.74346 7.31541L5.74969 7.30791L8.82693 3.60322L9 3.39486V3.124V2C9 1.86999 9.10969 1.74945 9.26287 1.75" stroke="#303B5F" stroke-width="1.5"/>
</svg>
