<svg width="28" height="24" viewBox="0 0 28 24" fill="none" xmlns="http://www.w3.org/2000/svg">
<path d="M27.6846 3.33552C26.805 3.73496 25.8419 3.97334 24.8917 4.1344C25.3412 4.05709 26.0025 3.24532 26.2657 2.9103C26.6702 2.40778 27.0041 1.83439 27.1903 1.2159C27.2159 1.16436 27.2352 1.10638 27.1838 1.06772C27.126 1.04195 27.0811 1.05483 27.0362 1.0806C25.9832 1.64755 24.8917 2.05988 23.7232 2.3498C23.6269 2.37557 23.5563 2.3498 23.4921 2.29181C23.3957 2.18229 23.3059 2.07921 23.2031 1.99545C22.7152 1.57668 22.1887 1.24811 21.598 1.00973C20.8211 0.694046 19.9736 0.558749 19.139 0.61029C18.3236 0.661831 17.5274 0.893769 16.8083 1.27388C16.0828 1.654 15.4408 2.18229 14.9271 2.81367C14.3942 3.47082 14.0026 4.25037 13.8035 5.07502C13.6109 5.86747 13.6238 6.65347 13.7458 7.4588C13.765 7.59409 13.7522 7.60698 13.6302 7.59409C9.08449 6.91762 5.31567 5.28119 2.25952 1.78929C2.12469 1.63467 2.05407 1.63467 1.94492 1.80218C0.60946 3.81228 1.25793 7.04647 2.92725 8.6378C3.15197 8.8504 3.37669 9.06301 3.62709 9.25629C3.5372 9.27561 2.42646 9.15321 1.43128 8.6378C1.29645 8.55404 1.23225 8.59914 1.21941 8.75376C1.20656 8.97281 1.22583 9.17253 1.25793 9.40446C1.51475 11.4468 2.92083 13.3345 4.8534 14.0689C5.08454 14.1656 5.33493 14.2493 5.58533 14.2944C5.14874 14.3911 4.69289 14.4619 3.43447 14.3588C3.28038 14.3266 3.21618 14.4104 3.28038 14.5586C4.22419 17.1485 6.27232 17.9216 7.8004 18.3597C8.00585 18.3984 8.21131 18.3984 8.41676 18.4435C8.40392 18.4628 8.39108 18.4628 8.37824 18.4821C7.87102 19.2617 6.11181 19.8351 5.28999 20.125C3.80044 20.6468 2.17606 20.8852 0.603039 20.7306C0.352641 20.6919 0.294856 20.6984 0.230651 20.7306C0.160026 20.7757 0.224231 20.8337 0.301277 20.8981C0.622301 21.1107 0.943325 21.2975 1.27719 21.4779C2.27878 22.0127 3.3189 22.4314 4.41038 22.7342C10.0476 24.2934 16.391 23.1466 20.6221 18.9331C23.9415 15.6216 25.11 11.0538 25.11 6.47952C25.11 6.29912 25.3219 6.20249 25.4439 6.10585C26.3106 5.45514 27.0041 4.67559 27.6525 3.80583C27.8002 3.61255 27.8002 3.4386 27.8002 3.36773C27.8002 3.35485 27.8002 3.34196 27.8002 3.34196C27.8002 3.26465 27.8002 3.28398 27.6846 3.33552Z" fill="white"/>
</svg>
