<svg width="30" height="30" viewBox="0 0 30 30" fill="none" xmlns="http://www.w3.org/2000/svg">
<line x1="16.2115" y1="2.3192" x2="8.21151" y2="26.3192" stroke="#303B5F" stroke-width="1.5"/>
<path fill-rule="evenodd" clip-rule="evenodd" d="M11.6323 23.4154H16.3333C17.5375 23.4154 18.5759 22.7059 19.0535 21.6822C19.233 21.2973 19.3333 20.8681 19.3333 20.4154V20.1406L19.8708 20.4154L20.8081 20.8945L23.6343 22.3392C25.6304 23.3597 27.9998 21.9099 27.9998 19.668L27.9998 10.0061C27.9998 7.72292 25.5508 6.27656 23.5514 7.37886L20.8289 8.87982L20.4621 9.08203L19.3333 9.70432V9.08203C19.3333 8.7325 19.2735 8.39694 19.1637 8.085C18.865 7.23711 18.1961 6.56378 17.3511 6.25907L16.8763 7.68333C17.4363 7.9009 17.8333 8.4451 17.8333 9.08203V9.70432V12.2441L20.0575 11.0179L24.2756 8.69246C25.2753 8.14131 26.4998 8.86448 26.4998 10.0061L26.4998 19.668C26.4998 20.7889 25.3151 21.5138 24.317 21.0036L20.0161 18.805L17.8333 17.6892V20.1406V20.4154C17.8333 21.2438 17.1617 21.9154 16.3333 21.9154H12.1323L11.6323 23.4154ZM12.1667 7.58203H5C4.17157 7.58203 3.5 8.2536 3.5 9.08203V20.4154C3.5 21.2438 4.17157 21.9154 5 21.9154H7.38889L6.88889 23.4154H5C3.34315 23.4154 2 22.0722 2 20.4154V9.08203C2 7.42518 3.34315 6.08203 5 6.08203H12.6667L12.1667 7.58203Z" fill="#303B5F"/>
</svg>
