<svg width="30" height="30" viewBox="0 0 30 30" fill="none" xmlns="http://www.w3.org/2000/svg">
<path fill-rule="evenodd" clip-rule="evenodd" d="M23.2852 9.61773C24.5262 8.7313 26.25 9.61841 26.25 11.1435V18.9268C26.25 20.4383 24.5534 21.3285 23.3096 20.4698L19.1846 17.6215C19.0159 17.505 18.8698 17.3634 18.75 17.2036V20.625C18.75 21.6605 17.9105 22.5 16.875 22.5H5.625C4.58947 22.5 3.75 21.6605 3.75 20.625V9.375C3.75 8.33947 4.58947 7.5 5.625 7.5H16.875C17.9105 7.5 18.75 8.33947 18.75 9.375V12.9649C18.864 12.8129 19.0017 12.6773 19.1602 12.5642L23.2852 9.61773ZM20.25 9.94236V9.375C20.25 7.51104 18.739 6 16.875 6H5.625C3.76104 6 2.25 7.51104 2.25 9.375V20.625C2.25 22.489 3.76104 24 5.625 24H16.875C18.739 24 20.25 22.489 20.25 20.625V20.18L22.4574 21.7041C24.6961 23.2499 27.75 21.6474 27.75 18.9268V11.1435C27.75 8.39834 24.6471 6.80156 22.4133 8.39713L20.25 9.94236Z" fill="#474752"/>
</svg>
