<svg width="30" height="30" viewBox="0 0 30 30" fill="none" xmlns="http://www.w3.org/2000/svg">
<mask id="path-1-inside-1_161:53198" fill="white">
<path fill-rule="evenodd" clip-rule="evenodd" d="M5 6.08203C3.34315 6.08203 2 7.42518 2 9.08203V20.4154C2 22.0722 3.34315 23.4154 5 23.4154H16.3333C17.9902 23.4154 19.3333 22.0722 19.3333 20.4154V20.1406L23.6343 22.3392C25.6304 23.3597 27.9998 21.9099 27.9998 19.668L27.9998 10.0061C27.9998 7.72292 25.5508 6.27656 23.5514 7.37886L19.3333 9.70432V9.08203C19.3333 7.42518 17.9902 6.08203 16.3333 6.08203H5Z"/>
</mask>
<path d="M19.3333 20.1406L20.0161 18.805L17.8333 17.6892V20.1406H19.3333ZM23.6343 22.3392L24.317 21.0036L23.6343 22.3392ZM27.9998 19.668H29.4998H27.9998ZM27.9998 10.0061H26.4998V10.0061L27.9998 10.0061ZM23.5514 7.37886L24.2756 8.69246L24.2756 8.69246L23.5514 7.37886ZM19.3333 9.70432H17.8333V12.2441L20.0575 11.0179L19.3333 9.70432ZM3.5 9.08203C3.5 8.2536 4.17157 7.58203 5 7.58203V4.58203C2.51472 4.58203 0.5 6.59675 0.5 9.08203H3.5ZM3.5 20.4154V9.08203H0.5V20.4154H3.5ZM5 21.9154C4.17157 21.9154 3.5 21.2438 3.5 20.4154H0.5C0.5 22.9006 2.51472 24.9154 5 24.9154V21.9154ZM16.3333 21.9154H5V24.9154H16.3333V21.9154ZM17.8333 20.4154C17.8333 21.2438 17.1617 21.9154 16.3333 21.9154V24.9154C18.8186 24.9154 20.8333 22.9006 20.8333 20.4154H17.8333ZM17.8333 20.1406V20.4154H20.8333V20.1406H17.8333ZM24.317 21.0036L20.0161 18.805L18.6506 21.4762L22.9515 23.6749L24.317 21.0036ZM26.4998 19.668C26.4998 20.7889 25.3151 21.5138 24.317 21.0036L22.9515 23.6749C25.9458 25.2055 29.4998 23.0308 29.4998 19.668H26.4998ZM26.4998 10.0061L26.4998 19.668H29.4998L29.4998 10.0061L26.4998 10.0061ZM24.2756 8.69246C25.2753 8.14131 26.4998 8.86448 26.4998 10.0061H29.4998C29.4998 6.58135 25.8263 4.41182 22.8272 6.06526L24.2756 8.69246ZM20.0575 11.0179L24.2756 8.69246L22.8272 6.06526L18.6091 8.39072L20.0575 11.0179ZM17.8333 9.08203V9.70432H20.8333V9.08203H17.8333ZM16.3333 7.58203C17.1617 7.58203 17.8333 8.2536 17.8333 9.08203H20.8333C20.8333 6.59675 18.8186 4.58203 16.3333 4.58203V7.58203ZM5 7.58203H16.3333V4.58203H5V7.58203Z" fill="#303B5F" mask="url(#path-1-inside-1_161:53198)"/>
</svg>
