<svg width="20" height="20" viewBox="0 0 20 20" fill="none" xmlns="http://www.w3.org/2000/svg">
<path fill-rule="evenodd" clip-rule="evenodd" d="M15.5234 6.41182C16.3508 5.82087 17.5 6.41227 17.5 7.42899V12.6179C17.5 13.6255 16.3689 14.219 15.5398 13.6465L12.7898 11.7477C12.6773 11.67 12.5799 11.5756 12.5 11.4691V13.75C12.5 14.4404 11.9404 15 11.25 15H3.75C3.05964 15 2.5 14.4404 2.5 13.75V6.25C2.5 5.55964 3.05964 5 3.75 5H11.25C11.9404 5 12.5 5.55964 12.5 6.25V8.64325C12.576 8.54194 12.6678 8.45156 12.7735 8.37611L15.5234 6.41182ZM13.5 6.62824V6.25C13.5 5.00736 12.4926 4 11.25 4H3.75C2.50736 4 1.5 5.00736 1.5 6.25V13.75C1.5 14.9926 2.50736 16 3.75 16H11.25C12.4926 16 13.5 14.9926 13.5 13.75V13.4533L14.9716 14.4694C16.4641 15.4999 18.5 14.4316 18.5 12.6179V7.42899C18.5 5.59889 16.4314 4.53437 14.9422 5.59809L13.5 6.62824Z" fill="black"/>
</svg>
