<svg width="114" height="100" viewBox="0 0 114 100" fill="none" xmlns="http://www.w3.org/2000/svg">
<path d="M15.5522 13.4204L0.31012 27.2364L5.58401 33.877C7.93264 32.417 12.6299 28.6084 14.7246 28.6084C19.4219 28.6084 23.6446 41.3357 27.6738 55.332C31.292 67.9004 35.0371 99.1309 52.3028 99.1309C72.1709 99.1309 113.938 45.4932 113.938 21.6208C113.938 12.9828 112.225 0.551758 95.0225 0.551758C76.5889 0.551758 67.5199 18.3415 65.2896 27.2364C66.894 26.1667 71.2616 25.4536 73.6683 25.4536C83.4731 25.4536 81.379 35.6166 80.042 39.7168C78.705 43.817 68.4258 63.7816 62.8829 63.7816C56.1087 63.7816 52.0976 34.3671 50.1366 21.6208C48.1757 8.87447 43.095 1.92196 35.3402 1.92196C29.1364 1.92196 19.5633 9.58759 15.5522 13.4204Z" fill="#B2B9C5"/>
</svg>
