<svg width="20" height="20" viewBox="0 0 20 20" fill="none" xmlns="http://www.w3.org/2000/svg">
<path d="M16.4805 7.60212C16.1782 7.60334 15.8777 7.6483 15.5883 7.7356C14.928 5.00289 12.7643 3.00781 10.1581 3.00781C9.1179 3.03134 8.1053 3.3468 7.2358 3.91818C6.36631 4.48956 5.67495 5.29385 5.2406 6.23928C4.90697 6.14474 4.56173 6.09744 4.21496 6.09879C1.88971 6.09879 0 8.20627 0 10.8406C0 13.475 1.91781 15.6527 4.25009 15.6527L9.09027 15.6035H11.3031L16.4875 15.5544C18.4194 15.5544 20 13.777 20 11.5993C20 9.42158 18.4405 7.60212 16.4805 7.60212ZM16.4805 13.9246L11.1626 13.9737H9.23779H6.36459H4.25711C3.46614 13.9249 2.72665 13.565 2.20015 12.9727C1.67366 12.3804 1.40294 11.6038 1.44714 10.8125C1.40294 10.0213 1.67366 9.24468 2.20015 8.65238C2.72665 8.06007 3.46614 7.70017 4.25711 7.6513C4.41991 7.65165 4.58228 7.66812 4.74183 7.70047C5.23472 7.80167 5.68679 8.04604 6.04145 8.40297C6.40887 8.73771 6.68866 9.1574 6.85634 9.62531C6.88693 9.71428 6.93508 9.79621 6.99794 9.86622C7.0608 9.93623 7.13708 9.9929 7.22226 10.0329C7.30743 10.0728 7.39977 10.0953 7.49379 10.0989C7.58781 10.1025 7.6816 10.0872 7.76958 10.0538C7.94777 9.95918 8.08533 9.80279 8.15646 9.61397C8.22759 9.42515 8.22741 9.21688 8.15595 9.02818C7.85371 8.17086 7.30357 7.42266 6.57534 6.87855C6.91355 6.21444 7.42513 5.65419 8.05587 5.2572C8.6866 4.86021 9.413 4.64125 10.1581 4.62355C12.3498 4.62355 14.1482 6.47111 14.373 8.91579C14.3798 9.04414 14.4179 9.16888 14.4841 9.2791C14.5502 9.38931 14.6423 9.48165 14.7524 9.54803C14.856 9.6184 14.9784 9.65602 15.1036 9.65602C15.2289 9.65602 15.3512 9.6184 15.4549 9.54803C15.768 9.32912 16.1406 9.21144 16.5227 9.21083C17.116 9.24883 17.6704 9.51964 18.0651 9.96432C18.4597 10.409 18.6628 10.9916 18.6301 11.5853C18.6549 12.1811 18.4426 12.7625 18.0398 13.2023C17.6369 13.642 17.0763 13.9042 16.4805 13.9316V13.9246Z" fill="#303B5F"/>
</svg>
