<svg width="20" height="21" viewBox="0 0 20 21" fill="none" xmlns="http://www.w3.org/2000/svg">
<g clip-path="url(#clip0)">
<path fill-rule="evenodd" clip-rule="evenodd" d="M4.34367 4.84285C4.7342 4.45232 5.36736 4.45232 5.75789 4.84285L15.6574 14.7423C16.0479 15.1329 16.0479 15.766 15.6574 16.1566C15.2669 16.5471 14.6337 16.5471 14.2432 16.1566L4.34367 6.25706C3.95315 5.86654 3.95315 5.23337 4.34367 4.84285Z" fill="#262734"/>
<path fill-rule="evenodd" clip-rule="evenodd" d="M4.34383 16.1573C3.9533 15.7668 3.9533 15.1336 4.34383 14.7431L14.2433 4.84359C14.6338 4.45307 15.267 4.45307 15.6575 4.84359C16.0481 5.23412 16.0481 5.86728 15.6575 6.25781L5.75804 16.1573C5.36751 16.5478 4.73435 16.5478 4.34383 16.1573Z" fill="#262734"/>
</g>
<defs>
<clipPath id="clip0">
<rect width="20" height="20" fill="white" transform="translate(0 0.5)"/>
</clipPath>
</defs>
</svg>
