<svg width="130" height="130" viewBox="0 0 130 130" fill="none" xmlns="http://www.w3.org/2000/svg">
<path d="M9.11831 40.3857C9.64046 32.347 16.1035 26.047 24.1494 25.6484C35.8003 25.0712 52.4529 24.375 65 24.375C77.5471 24.375 94.1997 25.0712 105.851 25.6484C113.896 26.047 120.36 32.347 120.882 40.3858C121.382 48.0875 121.875 57.5642 121.875 65C121.875 72.4358 121.382 81.9125 120.882 89.6143C120.36 97.653 113.896 103.953 105.851 104.352C94.1997 104.929 77.5471 105.625 65 105.625C52.4529 105.625 35.8003 104.929 24.1494 104.352C16.1035 103.953 9.64046 97.653 9.11831 89.6142C8.61804 81.9125 8.125 72.4358 8.125 65C8.125 57.5642 8.61804 48.0875 9.11831 40.3857Z" fill="#B2B9C5"/>
<path d="M52.8125 48.75V81.25L85.3125 65L52.8125 48.75Z" fill="white"/>
</svg>
